<?xml version="1.0" encoding="utf-8"?>
<!DOCTYPE svg PUBLIC "-//W3C//DTD SVG 1.1//EN" "http://www.w3.org/Graphics/SVG/1.1/DTD/svg11.dtd">
<svg version="1.1"
	 id="Layer_1" sodipodi:docname="alonzo.svg" xmlns:cc="http://creativecommons.org/ns#" xmlns:rdf="http://www.w3.org/1999/02/22-rdf-syntax-ns#" xmlns:dc="http://purl.org/dc/elements/1.1/" xmlns:sodipodi="http://sodipodi.sourceforge.net/DTD/sodipodi-0.dtd" xmlns:svg="http://www.w3.org/2000/svg"
	 xmlns="http://www.w3.org/2000/svg" xmlns:xlink="http://www.w3.org/1999/xlink" x="0px" y="0px" viewBox="27.2 12.9 233.2 215.8"
	 enable-background="new 27.2 12.9 233.2 215.8" xml:space="preserve">
<g id="ID0.8323829737491906" transform="matrix(1, 0, 0, 1, 0, 3)">
	<path id="Body" fill="#FF0000" stroke="#000000" stroke-width="3" stroke-linecap="round" stroke-linejoin="round" d="M206.8,205.6
		c-15-17.3-27-40.6-48.3-38.6c-26.4,0.6-40.6,32.2-66.3,41.9c-16.7,6.4-61.2,14.8-54.1,0c18-37.3,90.1-58.6,108.2-105.6
		c8.4-21.2-27.7-47-50.9-50.9c-17.4-3.2-25.8,27-41.9,36.1c-7.7,3.9-27.7,8.4-24.5,0C42.6,60.1,58.1,24,89,13.1
		c23.2-8.4,48.9,16.1,66.3,32.8C210,98.7,248.7,161,257.7,200.1C266.8,239.2,221.9,223,206.8,205.6z"/>
</g>
</svg>
