<?xml version="1.0" encoding="utf-8"?>
<!-- Generator: Adobe Illustrator 18.0.0, SVG Export Plug-In . SVG Version: 6.00 Build 0)  -->
<!DOCTYPE svg PUBLIC "-//W3C//DTD SVG 1.1//EN" "http://www.w3.org/Graphics/SVG/1.1/DTD/svg11.dtd">
<svg version="1.1"
	 id="Layer_1" sodipodi:docname="alonzo.svg" xmlns:svg="http://www.w3.org/2000/svg" xmlns:sodipodi="http://sodipodi.sourceforge.net/DTD/sodipodi-0.dtd" xmlns:dc="http://purl.org/dc/elements/1.1/" xmlns:rdf="http://www.w3.org/1999/02/22-rdf-syntax-ns#" xmlns:cc="http://creativecommons.org/ns#"
	 xmlns="http://www.w3.org/2000/svg" xmlns:xlink="http://www.w3.org/1999/xlink" x="0px" y="0px" viewBox="21 119.7 624.3 578.5"
	 enable-background="new 21 119.7 624.3 578.5" xml:space="preserve">
<g id="ID0.8323829737491906" transform="matrix(1, 0, 0, 1, 0, 3)">
	<path id="Body" fill="#FF0000" stroke="#000000" stroke-width="20" stroke-linecap="round" stroke-linejoin="round" d="
		M498.5,636.3c-39.4-45.4-70.9-106.5-126.8-101.3c-69.3,1.6-106.5,84.5-174,110c-43.8,16.8-160.6,38.8-142,0
		c47.2-97.9,236.5-153.8,284-277.1c22-55.6-72.7-123.3-133.6-133.6c-45.7-8.4-67.7,70.9-110,94.7c-20.2,10.2-72.7,22-64.3,0
		c35.7-74.5,76.4-169.3,157.5-197.9c60.9-22,128.3,42.3,174,86.1c143.6,138.6,245.1,302.1,268.7,404.7
		C656,724.5,538.2,682,498.5,636.3z"/>
</g>
</svg>
