<?xml version="1.0" encoding="UTF-8"?>
<!DOCTYPE svg PUBLIC "-//W3C//DTD SVG 1.1//EN" "http://www.w3.org/Graphics/SVG/1.1/DTD/svg11.dtd">
<svg xmlns="http://www.w3.org/2000/svg" xml:space="preserve" width="25.4112mm" height="25.4112mm" style="shape-rendering:geometricPrecision; text-rendering:geometricPrecision; image-rendering:optimizeQuality; fill-rule:evenodd; clip-rule:evenodd" viewBox="0 0 10.6576 10.6576" xmlns:xlink="http://www.w3.org/1999/xlink">
  <defs>
    <style type="text/css">
      <![CDATA[
        .str0 {stroke:#4D4948;stroke-width:0.147924}
        .str2 {stroke:#DB214C;stroke-width:0.29589}
        .str3 {stroke:#DB214C;stroke-width:0.29589;stroke-linecap:round}
        .str1 {stroke:#E77817;stroke-width:0.591821;stroke-linecap:round}
        .fil2 {fill:none}
        .fil1 {fill:#4D4948}
        .fil5 {fill:#DB214C}
        .fil3 {fill:#DEDEDD}
        .fil4 {fill:#DB214C;fill-rule:nonzero}
        .fil0 {fill:black;fill-rule:nonzero}
      ]]>
    </style>
  </defs>
  <symbol id="Im1-1-0" viewBox="-4.01676 -127.298 8.66548 4.20885">
    <path class="fil0" d="M1.28115 -125.324l0 0.0283937c-0.0862295,-0.0572487 -0.15346,-0.141381 -0.201775,-0.252104 -0.0481057,-0.110723 -0.0721375,-0.232056 -0.0721375,-0.363791 0,-0.136894 0.0254159,-0.261582 0.0759122,-0.374109 0.0506221,-0.112568 0.116678,-0.193052 0.198001,-0.241535l0 0.0277226c-0.0406822,0.0299874 -0.0740248,0.0708374 -0.10028,0.122927 -0.0260869,0.0518384 -0.0455892,0.117936 -0.058465,0.197749 -0.0128338,0.0800643 -0.0192926,0.163526 -0.0192926,0.250133 0,0.0983084 0.0059136,0.186928 0.0177827,0.266322 0.0118691,0.0793932 0.0301552,0.14503 0.0545226,0.19712 0.0245771,0.0522997 0.059807,0.099231 0.105732,0.141171zm3.09369 -1.17542l0 -0.0277226c0.0863553,0.0568293 0.153628,0.14071 0.201733,0.251433 0.0481057,0.110723 0.0721375,0.232056 0.0721375,0.363791 0,0.136894 -0.0252481,0.261834 -0.0758702,0.37457 -0.050664,0.112778 -0.11672,0.193261 -0.198001,0.241745l0 -0.0283937c0.0409758,-0.0299874 0.0745281,-0.0710471 0.100741,-0.122927 0.0260869,-0.0518384 0.0455892,-0.117727 0.0582972,-0.197539 0.0127079,-0.0796029 0.0191668,-0.163274 0.0191668,-0.250342 0,-0.097847 -0.00595554,-0.186509 -0.0176569,-0.266112 -0.0118272,-0.0793932 -0.0299455,-0.14524 -0.0546903,-0.19733 -0.0245771,-0.0522997 -0.0599748,-0.099231 -0.105858,-0.141171z"/>
    <path class="fil0" d="M-3.94299 -124.38l0 -1.66252 1.3293 0 0 1.66252 -1.3293 0zm0.0416888 -0.0416888l1.24597 0 0 -1.57914 -1.24597 0 0 1.57914z"/>
    <polygon class="fil0" points="-3.11718,-126.89 -2.58701,-126.89 -2.58701,-126.84 -3.11718,-126.84 "/>
    <path class="fil0" d="M-3.36572 -123.485l0.530169 0 0 0.0491122 -0.530169 0 0 -0.0491122zm0 0.188438l0.530169 0 0 0.049993 -0.530169 0 0 -0.049993z"/>
    <polygon class="fil0" points="-1.02209,-125.878 -0.491919,-125.878 -0.491919,-125.828 -1.02209,-125.828 "/>
    <path class="fil0" d="M-2.49973 -127.217l0.166587 -0.0813644 0.0167342 0 0 0.578442c0,0.0382497 0.0015518,0.0621976 0.00465539,0.0717181 0.00327135,0.00931077 0.00998182,0.0165245 0.0199636,0.0217251 0.0101915,0.00499091 0.0306585,0.00792674 0.0616944,0.00859779l0 0.0186215 -0.257598 0 0 -0.0186215c0.032378,-0.000671047 0.0532643,-0.00343911 0.0627429,-0.00843003 0.00926883,-0.00482315 0.0158115,-0.0114078 0.0195862,-0.0196701 0.00364882,-0.00826226 0.00553614,-0.0329232 0.00553614,-0.073941l0 -0.369831c0,-0.0498252 -0.00171956,-0.0816999 -0.00499091,-0.0958339 -0.00243254,-0.0108626 -0.00675241,-0.0187893 -0.0129596,-0.0238222 -0.00616524,-0.00499091 -0.0135468,-0.00759122 -0.0223542,-0.00759122 -0.0124144,0 -0.0298196,0.00520061 -0.0520481,0.0157277l-0.00754928 -0.0157277z"/>
    <path class="fil0" d="M-2.74328 -123.44c0,-0.0780931 0.0117014,-0.145366 0.0353138,-0.201733 0.0236125,-0.0563679 0.0547742,-0.0984342 0.0939046,-0.126031 0.0303229,-0.0218929 0.0615266,-0.0329232 0.0939046,-0.0329232 0.0523836,0 0.0995666,0.0269258 0.141297,0.0803579 0.0522158,0.0663498 0.0782189,0.156186 0.0782189,0.269803 0,0.0794771 -0.0113659,0.146875 -0.0343073,0.202404 -0.0228575,0.0556969 -0.0520061,0.0960436 -0.0875297,0.12104 -0.0354816,0.0251643 -0.0697889,0.0375786 -0.102838,0.0375786 -0.0651335,0 -0.119614,-0.0384594 -0.163022,-0.115714 -0.0366979,-0.0649657 -0.054942,-0.143227 -0.054942,-0.234782zm0.0988955 0.0125821c0,0.0942821 0.0115336,0.171369 0.0348106,0.23084 0.0191248,0.0501607 0.047896,0.075325 0.0858101,0.075325 0.018286,0 0.0370334,-0.00826226 0.0564938,-0.0244513 0.0196701,-0.0163987 0.034475,-0.0437858 0.0444569,-0.0820774 0.015518,-0.0579197 0.0232769,-0.139662 0.0232769,-0.244974 0,-0.0780931 -0.0080945,-0.143268 -0.0243254,-0.195526 -0.0120369,-0.0387949 -0.0277226,-0.066182 -0.0468475,-0.0824129 -0.0137984,-0.0110303 -0.0304907,-0.0165245 -0.049951,-0.0165245 -0.0229414,0 -0.0432825,0.0101496 -0.0611491,0.0306585 -0.0241577,0.0279323 -0.0406822,0.0719278 -0.0494897,0.131903 -0.00880749,0.0600167 -0.0130854,0.118943 -0.0130854,0.17724z"/>
    <polygon class="fil0" points="2.35617,-126.305 2.10826,-125.573 2.06791,-125.573 2.3157,-126.305 "/>
    <path class="fil0" d="M-3.69164 -127.284l0.211422 0.537047 0.114581 -0.40116c0.00947854,-0.0329652 0.0141339,-0.058465 0.0141339,-0.076751 0,-0.0124144 -0.00431986,-0.0222284 -0.0131274,-0.0293164 -0.00876555,-0.00704599 -0.0249546,-0.0104851 -0.0489025,-0.0104851 -0.00398434,0 -0.00826226,-0.000167762 -0.0125821,-0.000545226l0.0054942 -0.0187893 0.220061 0 -0.00603942 0.0187893c-0.0229414,-0.000335523 -0.0398015,0.00192926 -0.0509996,0.00708793 -0.0158535,0.00704599 -0.0275968,0.016189 -0.0353558,0.0272193 -0.0106529,0.0158954 -0.0216832,0.0434503 -0.0327135,0.0827904l-0.161093 0.56477 -0.0181183 0 -0.227778 -0.577897 -0.121627 0.42687c-0.00897525,0.0322522 -0.0136306,0.0570809 -0.0136306,0.0741507 0,0.0129177 0.0041521,0.0225639 0.0124144,0.0291067 0.00826226,0.00658465 0.0278904,0.0110303 0.0587585,0.0134629l-0.00499091 0.0186215 -0.215029 0 0.00704599 -0.0186215c0.0268419,-0.000671047 0.0449601,-0.00310359 0.0541031,-0.00704599 0.0137984,-0.00620718 0.023948,-0.0139662 0.0307004,-0.0238222 0.00977212,-0.014805 0.0206347,-0.0434503 0.0328813,-0.085852l0.135761 -0.476359c-0.0130854,-0.0201733 -0.0272193,-0.0341395 -0.0421921,-0.0416888 -0.0150147,-0.00742346 -0.0382916,-0.0117433 -0.0699566,-0.0127918l0.00566196 -0.0187893 0.171117 0z"/>
    <path class="fil0" d="M-3.74209 -123.559l-0.0670627 0.229792c0.0629106,-0.0939466 0.111142,-0.155851 0.144569,-0.185502 0.0334265,-0.0294841 0.0656368,-0.0442891 0.0966307,-0.0442891 0.016902,0 0.0307004,0.0054942 0.0417307,0.0165245 0.0108626,0.0111981 0.0163987,0.0257095 0.0163987,0.0434503 0,0.0201733 -0.00482315,0.0472249 -0.0146791,0.0808611l-0.0614847 0.212554c-0.00725569,0.024661 -0.0106948,0.0396756 -0.0106948,0.0450021 0,0.00465539 0.00138403,0.00863973 0.0039424,0.0119111 0.00276807,0.00327135 0.0057039,0.00482315 0.00863973,0.00482315 0.0041521,0 0.00897525,-0.00222284 0.0146372,-0.00654271 0.0179086,-0.0141339 0.0373689,-0.0356913 0.0585908,-0.0646721l0.0156857 0.00947854c-0.0313714,0.0448343 -0.0610233,0.0769187 -0.0889137,0.0960436 -0.0195023,0.0131274 -0.0370753,0.0196701 -0.0524255,0.0196701 -0.0125402,0 -0.0223542,-0.00381658 -0.0297777,-0.0114078 -0.00742346,-0.00754928 -0.0111981,-0.0177408 -0.0111981,-0.0304907 0,-0.0162309 0.0057039,-0.0439536 0.0172375,-0.0832937l0.0585908 -0.203076c0.00738151,-0.0251643 0.0110303,-0.0450021 0.0110303,-0.059136 0,-0.00671047 -0.00226478,-0.0122466 -0.00654271,-0.0163568 -0.00431986,-0.0041521 -0.009856,-0.00641688 -0.0162309,-0.00641688 -0.00931077,0 -0.0206766,0.0041521 -0.033762,0.0122466 -0.0249965,0.0151824 -0.0508318,0.0401789 -0.0776737,0.0749895 -0.0269258,0.0348525 -0.0553614,0.0793093 -0.0853068,0.133622 -0.0158535,0.0286453 -0.0289808,0.059849 -0.0395079,0.0939885l-0.0251223 0.0832517 -0.0758283 0 0.0918495 -0.316189c0.0108626,-0.0380819 0.016189,-0.0610233 0.016189,-0.0686145 0,-0.00742346 -0.00293583,-0.0139662 -0.00880749,-0.0195023 -0.00582972,-0.0054942 -0.0132532,-0.00843003 -0.0218929,-0.00843003 -0.00406822,0 -0.0111562,0.000712987 -0.0213057,0.00205508l-0.0191668 0.00310359 -0.00293583 -0.0182441 0.174598 -0.0312037z"/>
    <path class="fil0" d="M2.89536 -126.272l0.211422 0.537047 0.114623 -0.40116c0.00947854,-0.0329652 0.0141339,-0.058465 0.0141339,-0.076751 0,-0.0124144 -0.00431986,-0.0222284 -0.0131274,-0.0293164 -0.00876555,-0.00704599 -0.0249965,-0.0104851 -0.0489025,-0.0104851 -0.00398434,0 -0.00826226,-0.000167762 -0.0125821,-0.000545226l0.0054942 -0.0187893 0.220061 0 -0.00603942 0.0187893c-0.0229414,-0.000335523 -0.0398434,0.00192926 -0.0510415,0.00708793 -0.0158115,0.00704599 -0.0275549,0.016189 -0.0353138,0.0272193 -0.0106529,0.0158954 -0.0217251,0.0434503 -0.0327555,0.0827904l-0.161093 0.56477 -0.0180763 0 -0.227778 -0.577897 -0.121669 0.42687c-0.00897525,0.0322522 -0.0136306,0.0570809 -0.0136306,0.0741507 0,0.0129177 0.0041521,0.0225639 0.0124144,0.0291067 0.00826226,0.00658465 0.0279323,0.0110303 0.0588005,0.0134629l-0.00499091 0.0186215 -0.21507 0 0.00704599 -0.0186215c0.0268838,-0.000671047 0.0450021,-0.00310359 0.0541451,-0.00704599 0.0137565,-0.00620718 0.023906,-0.0139662 0.0306585,-0.0238222 0.00981406,-0.014805 0.0206766,-0.0434503 0.0329232,-0.085852l0.135761 -0.476359c-0.0131274,-0.0201733 -0.0272613,-0.0341395 -0.0421921,-0.0416888 -0.0150147,-0.00742346 -0.0382916,-0.0117433 -0.0699986,-0.0127918l0.00566196 -0.0187893 0.171117 0zm-1.31261 0.227946l-0.0670627 0.229792c0.0629106,-0.0939466 0.111142,-0.155851 0.144569,-0.185502 0.0334685,-0.0294841 0.0656368,-0.0442891 0.0966727,-0.0442891 0.016902,0 0.0306585,0.0054942 0.0416888,0.0165245 0.0108626,0.0111981 0.0163987,0.0257095 0.0163987,0.0434503 0,0.0201733 -0.00482315,0.0472249 -0.0146791,0.0808611l-0.0614847 0.212554c-0.00725569,0.024661 -0.0106948,0.0396756 -0.0106948,0.0450021 0,0.00465539 0.00138403,0.00863973 0.0039424,0.0119111 0.00276807,0.00327135 0.0057039,0.00482315 0.00863973,0.00482315 0.0041521,0 0.00897525,-0.00222284 0.0146372,-0.00654271 0.0179505,-0.0141339 0.0373689,-0.0356913 0.0585908,-0.0646721l0.0156857 0.00947854c-0.0313714,0.0448343 -0.0609814,0.0769187 -0.0889137,0.0960436 -0.0195023,0.0131274 -0.0370753,0.0196701 -0.0523836,0.0196701 -0.0125821,0 -0.0223962,-0.00381658 -0.0298196,-0.0114078 -0.00742346,-0.00754928 -0.0111981,-0.0177408 -0.0111981,-0.0304907 0,-0.0162309 0.0057039,-0.0439536 0.0172375,-0.0832937l0.0585908 -0.203076c0.00738151,-0.0251643 0.0110303,-0.0450021 0.0110303,-0.059136 0,-0.00671047 -0.00226478,-0.0122466 -0.00654271,-0.0163568 -0.00431986,-0.0041521 -0.009856,-0.00641688 -0.0162309,-0.00641688 -0.00931077,0 -0.0206347,0.0041521 -0.033762,0.0122466 -0.0249965,0.0151824 -0.0508318,0.0401789 -0.0776737,0.0749895 -0.0269258,0.0348525 -0.0553194,0.0793093 -0.0853068,0.133622 -0.0158535,0.0286453 -0.0289808,0.059849 -0.0395079,0.0939885l-0.0251223 0.0832517 -0.0757863 0 0.0918495 -0.316189c0.0108206,-0.0380819 0.0161471,-0.0610233 0.0161471,-0.0686145 0,-0.00742346 -0.00293583,-0.0139662 -0.00880749,-0.0195023 -0.00578778,-0.0054942 -0.0132112,-0.00843003 -0.021851,-0.00843003 -0.00411016,0 -0.0111981,0.000712987 -0.0213477,0.00205508l-0.0191668 0.00310359 -0.00293583 -0.0182441 0.174598 -0.0312037zm-1.27956 -0.200517c0.0141339,0 0.0260031,0.00482315 0.0358591,0.0146372 0.0096463,0.00968824 0.0146372,0.0215574 0.0146372,0.0358591 0,0.0137984 -0.00499091,0.0255417 -0.0150147,0.0355235 -0.00981406,0.0100238 -0.0217251,0.0148469 -0.0354816,0.0148469 -0.0137984,0 -0.0256675,-0.00482315 -0.0356494,-0.0148469 -0.009856,-0.00998182 -0.0148469,-0.0217251 -0.0148469,-0.0355235 0,-0.0143017 0.00482315,-0.0261708 0.0146372,-0.0358591 0.00968824,-0.00981406 0.0216832,-0.0146372 0.0358591,-0.0146372zm0.00654271 0.200517l-0.099944 0.353935c-0.00671047,0.023948 -0.0101496,0.0382497 -0.0101496,0.0429051 0,0.00553614 0.0015518,0.009856 0.00482315,0.0132951 0.00322941,0.00327135 0.00704599,0.00499091 0.0113239,0.00499091 0.00503285,0 0.0110303,-0.00276807 0.0181183,-0.0080945 0.0192926,-0.0151824 0.0386271,-0.0367398 0.0580455,-0.0646721l0.0177827 0.0115756c-0.0229414,0.0349783 -0.0497833,0.0644624 -0.0808192,0.0884524 -0.0228995,0.0179086 -0.0447924,0.0267161 -0.0656368,0.0267161 -0.0137984,0 -0.0249965,-0.0041521 -0.033762,-0.0122466 -0.00880749,-0.00826226 -0.0130854,-0.0186215 -0.0130854,-0.0312037 0,-0.0124144 0.00411016,-0.033091 0.0125821,-0.0620718l0.0656368 -0.226352c0.0106948,-0.0369076 0.0161471,-0.0601845 0.0161471,-0.069663 0,-0.00742346 -0.00255837,-0.0134629 -0.0078848,-0.0181183 -0.00515867,-0.00482315 -0.0124144,-0.00704599 -0.0213896,-0.00704599 -0.00738151,0 -0.0227317,0.00171956 -0.0460086,0.0054942l0 -0.0196281 0.174221 -0.0282678zm0.345296 -0.261205l-0.143352 0.496533 0.0575423 -0.0489864c0.0628687,-0.0532643 0.103719,-0.0925625 0.122676,-0.118272 0.00603942,-0.00843003 0.00893331,-0.014805 0.00893331,-0.0191248 0,-0.00310359 -0.000838808,-0.00587166 -0.00289389,-0.00859779 -0.00209702,-0.00276807 -0.00603942,-0.00486509 -0.0119111,-0.00658465 -0.00587166,-0.00171956 -0.016189,-0.00255837 -0.030994,-0.00255837l-0.0177408 0 0.0054942 -0.0191668 0.220732 0 -0.00515867 0.0191668c-0.0252062,0.00138403 -0.0468894,0.00532643 -0.0653012,0.0118691 -0.018286,0.00654271 -0.0360268,0.0162309 -0.0532643,0.0291486 -0.0339298,0.0251643 -0.0563679,0.0427373 -0.0672305,0.0524255l-0.0434083 0.0384174c0.00742346,0.0243254 0.0165665,0.0581294 0.027429,0.101538 0.0180763,0.0720956 0.030281,0.114833 0.0366979,0.128296 0.00654271,0.0134209 0.0130854,0.0201733 0.0197959,0.0201733 0.0057039,0 0.0124144,-0.00276807 0.0201733,-0.00863973 0.0173633,-0.0127499 0.0361526,-0.033091 0.0559905,-0.0610233l0.0177827 0.0125821c-0.0367398,0.0462183 -0.0648399,0.0765413 -0.084468,0.0912204 -0.0194604,0.0146372 -0.0372431,0.0218929 -0.0534321,0.0218929 -0.014092,0 -0.0251223,-0.00553614 -0.0328813,-0.0165665 -0.0134629,-0.0200056 -0.0358591,-0.0982664 -0.0670208,-0.234992l-0.0692856 0.0601845 -0.0518803 0.179295 -0.0787222 0 0.167468 -0.576345 0.0141339 -0.0489445c0.00171956,-0.00847197 0.00260031,-0.0158954 0.00260031,-0.0222704 0,-0.0080945 -0.00310359,-0.014805 -0.00931077,-0.0201733 -0.00620718,-0.00532643 -0.0153502,-0.0080945 -0.0270935,-0.0080945 -0.0076751,0 -0.0199217,0.00171956 -0.0368237,0.00499091l0 -0.017573 0.174724 -0.0298196z"/>
    <path class="fil0" d="M-1.75273 -125.115c-0.0041521,0.0289808 -0.00620718,0.0528869 -0.00620718,0.0721375 0,0.0511254 0.018328,0.0948692 0.0546064,0.13119 0.0363623,0.0360688 0.0803579,0.0541031 0.132322,0.0541031 0.0416888,0 0.0815322,-0.00855585 0.11995,-0.0257095 0.0384174,-0.0168601 0.0954564,-0.0546903 0.171075,-0.112904l0.0179924 0.0251223c-0.136768,0.135677 -0.267035,0.203327 -0.391136,0.203327 -0.0841325,0 -0.147672,-0.0265902 -0.190493,-0.0794771 -0.0425276,-0.0532224 -0.0637914,-0.111729 -0.0637914,-0.175856 0,-0.0860198 0.0262547,-0.174095 0.0794352,-0.264225 0.0531805,-0.0898783 0.119656,-0.159919 0.199972,-0.20987 0.0800643,-0.049951 0.162771,-0.0747798 0.247574,-0.0747798 0.0611072,0 0.106361,0.0124144 0.135845,0.0372431 0.0292744,0.0248287 0.0440374,0.0541031 0.0440374,0.0880749 0,0.0481895 -0.0189151,0.0939885 -0.057039,0.137732 -0.0502027,0.0573326 -0.12406,0.103467 -0.221529,0.138613 -0.0646721,0.0236544 -0.155683,0.0422759 -0.272613,0.0552775zm0.0059136 -0.0422759c0.0853488,-0.00973018 0.155054,-0.0265902 0.208528,-0.0502446 0.0711729,-0.0316231 0.124353,-0.0697469 0.159793,-0.113784 0.0354397,-0.044331 0.0531805,-0.0862715 0.0531805,-0.126199 0,-0.0242416 -0.00771704,-0.0437439 -0.0230672,-0.0588005 -0.0150147,-0.0150986 -0.0369076,-0.0224801 -0.0652593,-0.0224801 -0.0588005,0 -0.121124,0.0313295 -0.187264,0.0939885 -0.066182,0.062659 -0.114623,0.15518 -0.145911,0.27752z"/>
    <path class="fil0" d="M0.215112 -126.05l-0.0250384 0.0733119 -0.122172 0c-0.0380819,0.0770446 -0.0692017,0.150986 -0.0933594,0.221697 -0.0119111,0.0348525 -0.0143436,0.0596393 -0.00733957,0.0744862 0.00708793,0.0150147 0.0194604,0.0225639 0.0377464,0.0225639 0.0144694,0 0.0287711,-0.00499091 0.0430728,-0.0151405 0.0141759,-0.0101915 0.026045,-0.0248707 0.0357332,-0.0439955l0.017573 0c-0.023906,0.0532643 -0.0494478,0.0907171 -0.0765413,0.11261 -0.0271774,0.021851 -0.0531385,0.0328813 -0.0776317,0.0328813 -0.0263805,0 -0.0439536,-0.0120369 -0.0533902,-0.0358171 -0.00939466,-0.0239899 -0.00272613,-0.0686145 0.0196281,-0.134 0.0140081,-0.0410177 0.047183,-0.119446 0.0995246,-0.235286l-0.131274 0c-0.0707116,0.176527 -0.121585,0.288089 -0.152412,0.334936 -0.0306165,0.0467636 -0.059136,0.0701663 -0.0849713,0.0701663 -0.0120788,0 -0.0206766,-0.00411016 -0.0258772,-0.0120369 -0.00515867,-0.0080945 -0.00566196,-0.018286 -0.0015518,-0.0303229 0.00301971,-0.00880749 0.00700405,-0.0163987 0.0117853,-0.0227737 0.00679435,-0.00880749 0.0189151,-0.0210541 0.0364043,-0.0369076 0.0298196,-0.0272613 0.0538515,-0.0558646 0.0722214,-0.085852 0.0319586,-0.0512093 0.066182,-0.12364 0.102502,-0.217209l-0.0232769 0c-0.0244513,0 -0.0442891,0.00411016 -0.0590941,0.0122047 -0.0236125,0.0120788 -0.0484412,0.0322522 -0.0742765,0.06052l-0.0196701 0c0.0388788,-0.0582972 0.0744862,-0.0984342 0.107451,-0.120663 0.0248707,-0.016902 0.0548161,-0.025374 0.0894589,-0.025374l0.354774 0z"/>
  </symbol>
  <g id="Diagram">
    <g id="_47187648">
      <path id="_48879472" class="fil1 str0" d="M2.81236 1.13474l5.03285 0c0.924031,0 1.67762,0.753586 1.67762,1.67762l0 5.03285c0,0.924031 -0.753586,1.67762 -1.67762,1.67762l-5.03285 0c-0.924031,0 -1.67762,-0.753586 -1.67762,-1.67762l0 -5.03285c0,-0.924031 0.753586,-1.67762 1.67762,-1.67762z"/>
      <g>
        <line id="_49289904" class="fil2 str1" x1="1.13474" y1="7.0064" x2="0.295932" y2= "7.0064" />
        <line id="_48403816" class="fil2 str1" x1="1.13474" y1="6.16692" x2="0.295932" y2= "6.16692" />
        <line id="_49204088" class="fil2 str1" x1="1.13474" y1="4.48997" x2="0.295932" y2= "4.48997" />
        <line id="_49204208" class="fil2 str1" x1="1.13474" y1="5.32811" x2="0.295932" y2= "5.32811" />
        <line id="_49290992" class="fil2 str1" x1="1.13474" y1="3.65049" x2="0.295932" y2= "3.65049" />
        <line id="_48639800" class="fil2 str1" x1="1.13474" y1="2.81169" x2="0.295932" y2= "2.81169" />
        <line id="_48644528" class="fil2 str1" x1="1.13474" y1="7.84487" x2="0.295932" y2= "7.84487" />
      </g>
      <g>
        <line id="_48405752" class="fil2 str1" x1="10.3616" y1="7.0064" x2="9.52283" y2= "7.0064" />
        <line id="_48646592" class="fil2 str1" x1="10.3616" y1="6.16692" x2="9.52283" y2= "6.16692" />
        <line id="_48403280" class="fil2 str1" x1="10.3616" y1="4.48997" x2="9.52283" y2= "4.48997" />
        <line id="_48357280" class="fil2 str1" x1="10.3616" y1="5.32811" x2="9.52283" y2= "5.32811" />
        <line id="_49418576" class="fil2 str1" x1="10.3616" y1="3.65049" x2="9.52283" y2= "3.65049" />
        <line id="_48405824" class="fil2 str1" x1="10.3616" y1="2.81169" x2="9.52283" y2= "2.81169" />
        <line id="_49418384" class="fil2 str1" x1="10.3616" y1="7.84487" x2="9.52283" y2= "7.84487" />
      </g>
      <g>
        <line id="_49418408" class="fil2 str1" x1="3.65117" y1="10.3616" x2="3.65117" y2= "9.52283" />
        <line id="_49418528" class="fil2 str1" x1="4.49065" y1="10.3616" x2="4.49065" y2= "9.52283" />
        <line id="_48624064" class="fil2 str1" x1="6.16759" y1="10.3616" x2="6.16759" y2= "9.52283" />
        <line id="_48730256" class="fil2 str1" x1="5.32945" y1="10.3616" x2="5.32945" y2= "9.52283" />
        <line id="_48696176" class="fil2 str1" x1="7.00707" y1="10.3616" x2="7.00707" y2= "9.52283" />
        <line id="_48646640" class="fil2 str1" x1="7.84588" y1="10.3616" x2="7.84588" y2= "9.52283" />
        <line id="_48696152" class="fil2 str1" x1="2.81269" y1="10.3616" x2="2.81269" y2= "9.52283" />
      </g>
      <g>
        <line id="_48730584" class="fil2 str1" x1="3.65083" y1="1.13474" x2="3.65083" y2= "0.295932" />
        <line id="_48695832" class="fil2 str1" x1="4.49031" y1="1.13474" x2="4.49031" y2= "0.295932" />
        <line id="_48696128" class="fil2 str1" x1="6.16726" y1="1.13474" x2="6.16726" y2= "0.295932" />
        <line id="_48730560" class="fil2 str1" x1="5.32912" y1="1.13474" x2="5.32912" y2= "0.295932" />
        <line id="_49418792" class="fil2 str1" x1="7.00674" y1="1.13474" x2="7.00674" y2= "0.295932" />
        <line id="_48730512" class="fil2 str1" x1="7.84554" y1="1.13474" x2="7.84554" y2= "0.295932" />
        <line id="_48405728" class="fil2 str1" x1="2.81236" y1="1.13474" x2="2.81236" y2= "0.295932" />
      </g>
      <path id="_48730488" class="fil3 str2" d="M3.064 1.93161l4.52957 0c0.623738,0 1.13239,0.508653 1.13239,1.13239l0 4.52957c0,0.623738 -0.508653,1.13239 -1.13239,1.13239l-4.52957 0c-0.623738,0 -1.13239,-0.508653 -1.13239,-1.13239l0 -4.52957c0,-0.623738 0.508653,-1.13239 1.13239,-1.13239z"/>
    </g>
  </g>
  <text x="50%" y="47.5%" text-anchor="middle" fill="#DB214C" font-family="CMUSerif-Bold" font-size="4">λ</text>
  <text x="50%" y="62.5%" fill="#4D4948" font-family="CMUSerif-Bold" font-size="2">
    <tspan x="50%" text-anchor="middle">Gunn</tspan><tspan x="50%" dy="1.5" text-anchor="middle">Hacks</tspan>
  </text>
</svg>
